<?xml version="1.0" standalone="no"?>
<!DOCTYPE svg PUBLIC "-//W3C//DTD SVG 20010904//EN"
 "http://www.w3.org/TR/2001/REC-SVG-20010904/DTD/svg10.dtd">
<svg version="1.0" xmlns="http://www.w3.org/2000/svg"
 width="700.000000pt" height="700.000000pt" viewBox="0 0 700.000000 700.000000"
 preserveAspectRatio="xMidYMid meet">
<metadata>
Created by potrace 1.14, written by Peter Selinger 2001-2017
</metadata>
<g transform="translate(0.000000,700.000000) scale(0.100000,-0.100000)"
fill="#000000" stroke="none">
<path d="M3589 6985 c-270 -45 -588 -197 -987 -471 -362 -250 -1126 -856
-1617 -1284 -179 -156 -546 -525 -637 -640 -499 -631 -465 -1111 138 -1988
250 -362 858 -1128 1284 -1617 156 -179 525 -546 640 -637 500 -395 894 -446
1440 -187 331 158 707 419 1380 958 579 464 910 751 1180 1027 251 255 377
423 477 629 251 523 95 1015 -626 1970 -262 347 -721 913 -1011 1246 -179 205
-535 562 -660 661 -364 288 -668 389 -1001 333z m411 -1588 c50 -26 90 -90 90
-144 0 -46 -1019 -3438 -1044 -3477 -32 -47 -105 -80 -162 -71 -76 11 -144 88
-144 163 0 43 1025 3450 1047 3481 24 33 98 71 139 71 17 0 50 -10 74 -23z
m-1515 -510 c57 -32 87 -88 82 -154 -2 -28 -11 -63 -21 -77 -9 -15 -290 -266
-624 -558 -334 -292 -607 -534 -607 -538 0 -3 272 -244 604 -535 333 -292 614
-542 625 -557 30 -42 32 -124 4 -173 -42 -72 -135 -104 -211 -71 -38 16 -1408
1213 -1434 1253 -24 36 -24 130 0 166 25 38 1395 1236 1432 1253 46 20 105 17
150 -9z m2016 7 c36 -18 1371 -1185 1411 -1232 47 -56 49 -142 6 -198 -35 -44
-1379 -1217 -1418 -1236 -134 -69 -285 76 -226 216 10 25 182 181 628 571 337
295 613 541 613 545 0 4 -275 249 -611 542 -430 377 -615 545 -627 570 -23 49
-21 95 6 148 39 78 143 114 218 74z"/>
</g>
</svg>
